<?xml version="1.0" standalone="no"?>
<!DOCTYPE svg PUBLIC "-//W3C//DTD SVG 20010904//EN"
 "http://www.w3.org/TR/2001/REC-SVG-20010904/DTD/svg10.dtd">
<svg version="1.0" xmlns="http://www.w3.org/2000/svg"
 width="512.000000pt" height="512.000000pt" viewBox="0 0 512.000000 512.000000"
 preserveAspectRatio="xMidYMid meet">
<metadata>
Created by potrace 1.14, written by Peter Selinger 2001-2017
</metadata>
<g transform="translate(0.000000,512.000000) scale(0.100000,-0.100000)"
fill="#000000" stroke="none">
<path d="M2325 4969 c-195 -21 -426 -76 -600 -144 -352 -137 -630 -325 -888
-603 -341 -367 -556 -843 -608 -1351 -17 -161 -6 -462 21 -620 114 -655 462
-1189 1020 -1566 511 -346 1160 -465 1798 -330 773 163 1443 760 1700 1515
153 448 170 892 52 1362 -174 690 -688 1284 -1353 1562 -360 151 -770 214
-1142 175z m408 -139 c431 -35 812 -183 1172 -454 115 -86 320 -294 409 -415
300 -405 438 -823 439 -1326 0 -358 -65 -648 -218 -960 -291 -595 -861 -1047
-1495 -1184 -553 -119 -1118 -31 -1588 248 -521 308 -882 786 -1027 1357 -39
157 -56 283 -62 475 -16 475 104 896 368 1290 444 664 1207 1033 2002 969z"/>
<path d="M2400 3964 c-298 -43 -482 -129 -637 -298 -114 -124 -171 -269 -180
-456 -7 -148 12 -253 68 -367 93 -190 275 -296 721 -423 375 -107 481 -179
495 -340 8 -90 -11 -145 -71 -206 -42 -41 -63 -53 -116 -68 -69 -19 -154 -18
-235 5 -84 24 -185 165 -185 259 l0 30 -341 0 -342 0 6 -82 c15 -191 78 -330
206 -458 174 -172 387 -254 691 -267 235 -9 414 21 577 97 246 115 419 320
467 552 47 229 -14 476 -152 616 -111 112 -270 185 -628 287 -126 36 -261 81
-300 100 -77 38 -143 94 -170 147 -22 43 -30 164 -14 213 45 136 243 201 388
128 84 -41 128 -109 156 -235 l6 -28 346 0 347 0 -7 73 c-21 215 -80 353 -206
478 -63 63 -96 86 -181 128 -165 81 -363 122 -579 120 -58 -1 -116 -3 -130 -5z"/>
</g>
</svg>
